<svg xmlns="http://www.w3.org/2000/svg" viewBox="0 0 176.5 176.5"><defs><style>.cls-1{fill:#ff7b15;stroke-width:10px;}.cls-1,.cls-3{stroke:#fffee9;stroke-miterlimit:10;}.cls-2{fill:#fffee9;}.cls-3{fill:none;stroke-width:8px;}</style></defs><title>Asset 2</title><g id="Layer_2" data-name="Layer 2"><g id="Layer_1-2" data-name="Layer 1"><circle class="cls-1" cx="88.25" cy="88.25" r="83.25"/><path class="cls-2" d="M83.59,27.75A290.56,290.56,0,0,0,83.8,59a300.47,300.47,0,0,0,3.49,30.51,236.73,236.73,0,0,0,6.81,29.8,111.83,111.83,0,0,0,5.34,14.24,49,49,0,0,0,3.68,6.64,24.77,24.77,0,0,0,5.13,5.79,19.46,19.46,0,0,1-7.18-3.89,38.2,38.2,0,0,1-5.79-5.92,71.68,71.68,0,0,1-8.51-14,120.16,120.16,0,0,1-9.34-31A134.39,134.39,0,0,1,76,58.94a108.46,108.46,0,0,1,2.46-16A75.88,75.88,0,0,1,83.59,27.75Z"/><path class="cls-2" d="M25.5,106.25A54.33,54.33,0,0,1,38.45,96l1.82-1a20.71,20.71,0,0,1,1.85-1c1.25-.6,2.53-1.16,3.8-1.75.64-.28,1.27-.6,1.92-.85l2-.71c1.31-.47,2.61-1,3.93-1.41C64.32,85.76,75.21,84.11,86,83s21.49-1.46,32.19-1.61,21.42-.05,32.35.85A186.23,186.23,0,0,1,118.92,90C108.27,91.78,97.6,92.93,87,94s-21,1.92-31.26,3.61A126.62,126.62,0,0,0,25.5,106.25Z"/><path class="cls-2" d="M100.25,41.25a18.1,18.1,0,0,1,6.52,1.83,35,35,0,0,1,5.74,3.45,48.57,48.57,0,0,1,9.37,9.22c.66.88,1.32,1.76,1.94,2.68a30.57,30.57,0,0,1,1.67,2.81c.5.9.92,1.79,1.35,2.61.21.42.43.81.64,1.21.11.2.21.39.33.59l.5.66L132,71.39c.61.84,1.24,1.65,1.91,2.43a6,6,0,0,0,2.37,1.93,3.3,3.3,0,0,1-1.72.06,9.48,9.48,0,0,1-1.67-.47,22.17,22.17,0,0,1-3-1.48,51.28,51.28,0,0,1-5.4-3.72l-.61-.47-.76-.55a17.79,17.79,0,0,1-1.39-1.2,27.36,27.36,0,0,1-2.33-2.52c-.71-.83-1.29-1.61-1.92-2.38s-1.21-1.59-1.85-2.37L108.13,51l-3.77-4.86C103.08,44.55,101.77,42.94,100.25,41.25Z"/><path class="cls-2" d="M104,75.75a14.35,14.35,0,0,1,.28-6.58,26.34,26.34,0,0,1,2.63-6l.76-1.32a8.78,8.78,0,0,1,.52-.8l.5-.71c.64-.91,1.33-1.69,2-2.5s1.41-1.56,2.2-2.29c.39-.37.79-.74,1.23-1.12a13.64,13.64,0,0,1,1.66-1.23l.43-.26.26-.15.52-.32c.36-.22.72-.44,1.08-.69.72-.5,1.45-1,2.17-1.57,1.44-1.11,2.88-2.29,4.26-3.55a49,49,0,0,0,4-4,18,18,0,0,0,3.25-4.94,11,11,0,0,1,.08,6.61,23.31,23.31,0,0,1-2.61,6.1,29.43,29.43,0,0,1-4,5.24A25.56,25.56,0,0,1,122.74,58q-.66.54-1.38,1.06l-.75.49-.39.24-.2.12s0,0,0,0l-.73.61c-.33.27-.69.57-1,.88-.7.63-1.46,1.23-2.17,1.87s-1.48,1.25-2.21,1.82l-.5.42a5.07,5.07,0,0,0-.44.37L111.82,67c-1.46,1.38-2.84,2.61-4.12,4A38.94,38.94,0,0,0,104,75.75Z"/><path class="cls-2" d="M46.75,141.5a52.81,52.81,0,0,1,1.05-5.86,35.11,35.11,0,0,1,2-5.7,36.48,36.48,0,0,1,2.95-5.33l.21-.32.27-.39c.22-.3.43-.57.64-.82.44-.49.87-.91,1.29-1.3a21.18,21.18,0,0,1,2.63-2l1.17-.72.94-.63c.63-.45,1.25-.94,1.89-1.44,1.25-1,2.5-2.16,3.7-3.37a50.33,50.33,0,0,0,3.5-3.87A26.25,26.25,0,0,0,72.05,105a11,11,0,0,1,.77,6.33,18.9,18.9,0,0,1-2,6.11,22.17,22.17,0,0,1-3.77,5.24,19.42,19.42,0,0,1-2.49,2.21,15.88,15.88,0,0,1-1.42,1l-1.29.73c-.73.41-1.46.81-2.1,1.2-.32.19-.63.38-.88.55l-.34.21-.07,0-.11.12-.23.24c-1.25,1.27-2.5,2.57-3.7,3.94s-2.42,2.77-3.65,4.24A44.18,44.18,0,0,1,46.75,141.5Z"/><path class="cls-2" d="M44,108.64c.51,0,1,.12,1.54.19a10.14,10.14,0,0,1,1.49.42,19.89,19.89,0,0,1,2.82,1.17,35.41,35.41,0,0,1,5,3.11,54.69,54.69,0,0,1,8.46,7.81,59.61,59.61,0,0,1,6.7,9.26A37.12,37.12,0,0,1,74.5,141.5a57.23,57.23,0,0,1-9.33-6.91,91.6,91.6,0,0,1-7.83-7.94c-2.44-2.77-4.72-5.66-6.88-8.66-1.07-1.51-2.13-3-3.17-4.59S45.26,110.29,44,108.64Z"/><path class="cls-3" d="M63.17,62.69a21.88,21.88,0,0,0-1-5.82l-1.81-6.57A8.94,8.94,0,0,0,59,47.2a6.35,6.35,0,0,0-3.61-2.07,21.15,21.15,0,0,0-8.9-.43c-2.1.35-4.28,1.15-5.43,3.1-1,1.71-2.47,3.86-2.71,5.53a24.2,24.2,0,0,0,.75,8.13c.56,2.24,2.32,4.53,3.63,6.38,1.79,2.52,6.15,3.32,8.93,3.58,2.52.23,7.05.15,9.21-1.3C62.53,69,63.16,64.93,63.17,62.69Z"/><path class="cls-3" d="M137.13,122a21.88,21.88,0,0,0-.2-5.91l-.84-6.77a8.94,8.94,0,0,0-.83-3.24,6.35,6.35,0,0,0-3.28-2.57,21.15,21.15,0,0,0-8.75-1.7c-2.12,0-4.4.53-5.82,2.28-1.25,1.54-3,3.46-3.48,5.09a24.2,24.2,0,0,0-.43,8.15c.23,2.3,1.64,4.81,2.67,6.83,1.41,2.76,5.61,4.17,8.32,4.82,2.46.59,7,1.17,9.3,0C135.58,128.2,136.8,124.25,137.13,122Z"/></g></g></svg>